<svg xmlns="http://www.w3.org/2000/svg"><symbol id="brachiosaurus" viewBox="0 0 256 256"><path d="M86.4 151.5a17 17 0 0 0-4.6.6.7.7 0 0 0 .4.6l1.2.6 1.6.6 1.7.5 1.5.4h2.1l1.6-.3 1.4-.5a2.2 2.2 0 0 0 1-.9 17.1 17.1 0 0 0-3.8-1.3 19.2 19.2 0 0 0-4.1-.3z"/><path d="M128 51.3a76.7 76.7 0 1 0 76.7 76.7A76.8 76.8 0 0 0 128 51.3zm50 42.3v.2a3.4 3.4 0 0 1-.1.9 5 5 0 0 1-.2 1.2 5.1 5.1 0 0 1-.2 1.3 5.4 5.4 0 0 1-.1.8l-.6 1.1-.3 1.2a5.6 5.6 0 0 0-.4 1.2c-.1.4-.3.8-.4 1.2s-.7 1.3-1 1.8a11.4 11.4 0 0 0-1 1.9l-12 16.7-.2.3v.2h-.2l-.3.3a9.4 9.4 0 0 1-1 1.4l-1.2 1.7-1.3 2a10.6 10.6 0 0 0-1.2 2 7.6 7.6 0 0 0-.9 1.8 3.9 3.9 0 0 0-.3 1.4v.4c0 .1.1.3.1.4-.1 0-.2.1-.2.3l.2.2v6.1c0 .2-.1.4-.1.6l-.3.7c-.1.3-.3.5-.3.8s-.3.4-.3.6v1c0 .1.1.2 0 .3s-.1.3-.3.5l-.4.5-.3.2v.3l.5.2.5.3v1.7a15.5 15.5 0 0 1-.4 2.1c-.1.7-.3 1.4-.4 2.1a15.5 15.5 0 0 0-.4 2.1 14.9 14.9 0 0 0-.2 2.1c0 1.3 0 2.6.1 3.8s.4 2.5.7 3.7a14.8 14.8 0 0 0 1.3 3.5 15.5 15.5 0 0 0 2 3.2l-.7.5-1 .4-1.1.3h-1.7l-.8-.2h-1l-.4-.2-.4-.2c-.1-.2-.2-.3-.2-.5a19.3 19.3 0 0 0 .1-2.4c-.1-.9-.1-1.7-.2-2.6l-.3-2.6a9.9 9.9 0 0 1-.3-2.4l-.2-.4c0-.2-.1-.3-.1-.4a17.7 17.7 0 0 1 .1-2.2 19.3 19.3 0 0 0-.1-2.4 20 20 0 0 0-.4-2.4 10.2 10.2 0 0 0-.8-2.1 2.4 2.4 0 0 0-.9 1.1c-.2.5-.3 1.1-.5 1.7s-.1 1.1-.2 1.7-.6 1.1-.6 1.4v4.6c0 1.7-.1 3.4-.1 5s.2 3.2.4 4.9c0 .1.1.1.2.2l.5.4.5.4.2.4c0 .1-.2.3-.5.5l-1.1.5-1.2.5-.8.2h-.3l-2.9-1.5a.5.5 0 0 1-.1-.3v-.4a10.8 10.8 0 0 1 0-1.8 9.7 9.7 0 0 0 .1-1.8 17.9 17.9 0 0 0-.2-2.3 17 17 0 0 0-.4-2.2l-.3-2.3a17.9 17.9 0 0 1-.2-2.3c0-.8.1-1.5.1-2s.1-1.2.2-1.7l.3-1.7a10.1 10.1 0 0 0 .4-2c.1-.1.1-.2 0-.4s-.1-.3-.1-.4h-1.1l-1.1.3-1.2.4-1.1.3h-11.6a2.7 2.7 0 0 0-1.5.5 16 16 0 0 1 0 3.1c0 1.1 0 2.1-.1 3.1s-.1 2.1-.1 3.1-.1 2.1-.1 3.1v3.1c0 .3.4.7.7 1l.8 1 .7 1.1a1.5 1.5 0 0 1 .4 1.1h-.1a4.8 4.8 0 0 1-2.4.2c0 .3 0 .5-.1.5h-1.7l-1.3-.2a1.9 1.9 0 0 1-1.1-.5c-.4-.2-.5-.6-.5-1.1a2.2 2.2 0 0 1 .1-.8 3.1 3.1 0 0 1 .2-.8 1.9 1.9 0 0 1 .2-.7v-.9a16.9 16.9 0 0 0-.1-2.3c-.1-.7-.3-1.5-.4-2.2a18.9 18.9 0 0 1-.5-2.3 13.3 13.3 0 0 1-.4-2.4h-.3c-.1 0-.2.5-.3.6l-.3.4v.3l-1 1.4-.9 1.4-.6 1.4a4.7 4.7 0 0 0-.3 1.7 2.9 2.9 0 0 0 .2.9 3.6 3.6 0 0 0 .5.9 2.1 2.1 0 0 0 .4.7l.2.4a.5.5 0 0 1-.2.4c-.2.2-.4.2-.7.3l-.8.2h-2.6l-.6-.3a1 1 0 0 1-.4-.5 2.3 2.3 0 0 1-.4-1l-.3-1a3 3 0 0 1-.2-1 2.3 2.3 0 0 1 .3-.9l.6-.9.6-1 .5-.8 1.5-3.6 1.5-3.6.2-.4.4-.4c.1-.2.2-.3.2-.5a.7.7 0 0 0 .1-.5c0-.2 0-.3-.2-.4h-.7l-5.5 1.5a.8.8 0 0 1-.7.3l-1.1.3-1 .3a1 1 0 0 0-.4.7.8.8 0 0 0 .2.5l.4.4.5.3.4.4-.2.3-.8-.6-.8-.5-1-.3-.9-.2a8.3 8.3 0 0 0-2.2.3l-2.4.7-2.5.7a10.9 10.9 0 0 1-2.6.3l-2-.2-3-.7-3.3-1-3-1.4a9.6 9.6 0 0 1-2.2-1.6 2.6 2.6 0 0 1-.9-1.8 3 3 0 0 1 .7-2 4.8 4.8 0 0 1 1.7-1 13.4 13.4 0 0 1 2.1-.1l2 .2h2.4a1.3 1.3 0 0 1 .8-.1H89l1.5.2h1.2l1.2.4 1.1.5 1.1.4 1.2.2a6 6 0 0 0 2.4-.6l2.5-1.6 2.3-1.8 2-1.7 1.1-.7 1.1-.7 1.1-.8a4.5 4.5 0 0 0 .9-1 11.7 11.7 0 0 0 1.5-2.7c.5-.9 1.1-1.8 1.7-2.7l.8-.8.9-.6 1-.5 1-.5 2.1-1.6 2.1-1.8 2-1.8 2.1-1.7a10.9 10.9 0 0 1 2.3-1.4l2.4-1.1 1.5-.8 1.5-.7 1.5-.7 1.6-.5 13.5-2a8.3 8.3 0 0 0 2.1-.6 12.8 12.8 0 0 0 2.1-1.4l1.9-1.7a16.3 16.3 0 0 0 1.7-2c.6-.6 1.1-1.3 1.6-1.9l1.4-1.4 4.6-5.4.2-.2.3-.3.3-.3.2-.2 1.2-1.9c0-.1.1-.1.2-.1l.2-.2h.4c0-.1.1-.2.2-.3l.2-.2a10.5 10.5 0 0 0 .8-1.1 10.5 10.5 0 0 0 .8-1.1l.8-1.2c.3-.4.4-.8.6-1.1a6.1 6.1 0 0 0 .5-1.2 5 5 0 0 0 .4-1.3c.2-.4.3-.8.5-1.3s.6-.9.6-1.3v-3.9a3 3 0 0 0-.7-1.9 5.4 5.4 0 0 0-1.5-1.5 7.1 7.1 0 0 0-2.1-1.1 4.6 4.6 0 0 0-1.9-.4 13.4 13.4 0 0 0-3.5.4 6.6 6.6 0 0 0-3.1 1.6l-.9.8-.9 1.2-1.1 1.2-1.1 1.1-1.1.8a2.3 2.3 0 0 1-1.1.3 1 1 0 0 1-1-1v-.5a9329101592432.3 9329101592432.3 0 0 1 .2-1v-.3a3.6 3.6 0 0 0-.2-1l-.3-.8a2.5 2.5 0 0 1-.4-.7 1.9 1.9 0 0 1-.1-.8h.5l.3-.4a.8.8 0 0 1 .2-.4 1 1 0 0 1 .5-.4h1.7c.3 0 .5 0 .6-.2l.4-.4h.2l.2.3v.2a.2.2 0 0 1 .2-.2l.4-.2.7-.4.8-.5.8-.5.7-.4.3-.2 1.3-.8 1.1-.4h5l.9.4.9.2h1l.9.3a8.8 8.8 0 0 1 2.7 1.9 9.6 9.6 0 0 1 2 2.5 10.6 10.6 0 0 1 1 3 12.3 12.3 0 0 1 .3 3.3v1.4z"/></symbol><symbol id="micropachycephalosaurus" viewBox="0 0 256 256"><path d="M130.7 142c-.1 0-.2.1-.2.3h-.1a.3.3 0 0 0-.3.3c0 .3.1.4.3.4s.3-.1.3-.4a.3.3 0 1 0 0-.6zm.9-.5l-.5.5h.2l.6-.2.6-.5h-.2a1 1 0 0 0-.7.2zm1.9-1.6c-.2 0-.3.1-.3.4h-.1c-.1 0-.2.1-.2.3h-.1c-.2 0-.3.1-.3.4a.3.3 0 1 0 .6 0c.2 0 .3-.2.3-.4h.1a.3.3 0 0 0 .3-.3c0-.3-.1-.4-.3-.4zm14-3.5l-.8.8c.1.3.3.6.5.6l.7.2a1.1 1.1 0 0 0 .8-.3 2.7 2.7 0 0 0 .7-.8 7.9 7.9 0 0 0 .4-.9c.1-.3.2-.7.3-.7h-2c-.2 0-.4.7-.6 1.1z"/><path d="M128 51.3a76.7 76.7 0 1 0 76.7 76.7A76.8 76.8 0 0 0 128 51.3zm57.5 45.5l-1 .2h-2.2l-3.1.8a9 9 0 0 0-2.2 1 4.7 4.7 0 0 0-1.5 1.3 9.9 9.9 0 0 0-1.1 1.7q-.5 1-.9 2.4c-.3.9-.6 1.9-1 3s-.5 1.4-.7 2.1a10.8 10.8 0 0 1-.8 1.9 10.8 10.8 0 0 1-.8 1.9c-.4.6-.7 1.3-1.1 2a14.3 14.3 0 0 1-1.6 2.4l-1.8 2.2a20 20 0 0 1-1.9 2.2l-1.8 2.3a6.5 6.5 0 0 0-.9 1.6 6.6 6.6 0 0 1-.5 1.5 4.2 4.2 0 0 1-.9 1.4 2.7 2.7 0 0 1-1.5.9l-.8.4-1.2.4-1.2.4-.8.2a1.7 1.7 0 0 1 .1 1.2c-.2.3-.3.5-.6.6l-.7.3c-.2.2-.4.3-.5.6l-1.4 4.1a1.8 1.8 0 0 1-.6.9l-1.1.5h-1.2a3.7 3.7 0 0 1-1.1-.1h-1.2a.5.5 0 0 1-.3-.5v-.3h.2v-.2c0-.1.1-.1.1-.2h.1a7.5 7.5 0 0 0-2 1l-2.1 1.2a13.7 13.7 0 0 1-2 1.3 8.2 8.2 0 0 1-2 1.2l-.5.3-.7.3c-.3.2-.5.3-.6.5a.9.9 0 0 0-.3.6v.4l1.1 1 1.2 1 1.2 1 1.3.7 1.1.4 1.2.3 1.1.4 1 .6.8.8.7.9.7.9a2.4 2.4 0 0 0 .9.8 3.4 3.4 0 0 0 1 .4l1.2.3a4.1 4.1 0 0 1 1.1.7 1.2 1.2 0 0 1 .5 1v.2l-3.4.7-.7.2-.7.2h-.3l-.7-.3-1-.6-1.1-.7-.6-.4h-.1l-.2-.3-.2-.4-.2-.2-1.3-2.8-.7-.2-1.1-.5-1.3-.5-1.3-.6-1.1-.5-.6-.4a7 7 0 0 1-1.7-.9l-1.6-1.3a6.1 6.1 0 0 1-1.2-1.6 7 7 0 0 1-.6-1.9h-.4l-.3.2-.5.4-1.1.7-1.3.9-1.2.8-1.1.6-.6.4-3.6 2.1a18.9 18.9 0 0 0-2.7 2 11.3 11.3 0 0 0-2.2 2.7c-.5 1.1-.4 2.4-1.4 4v.9a4.7 4.7 0 0 0 .7 2.6 5.2 5.2 0 0 0 1.2 1.6 4 4 0 0 0 1.6.8l1.6.6 1.2.6a2.7 2.7 0 0 1 .4 1.2h-8a.3.3 0 0 0-.1-.2h-.5l-.4-.2a1.6 1.6 0 0 1-.7-.9 3.1 3.1 0 0 1-.3-1.3 6.1 6.1 0 0 1 .1-1.4c0-.5.2-.9.2-1.3v-.9a4.6 4.6 0 0 1 .1-1c.2-.5.2-1.1.4-1.7s.3-1.2.4-1.9a13.3 13.3 0 0 0 .5-1.9 12.4 12.4 0 0 0 .4-1.6 6.2 6.2 0 0 1 .3-1 9.2 9.2 0 0 1 1-2.4 8.7 8.7 0 0 0 2.7-1.5l2-2 1.7-2.1a9.1 9.1 0 0 1 2.1-1.8l.8-.5 1.3-.5 1.4-.5 1.3-.7a3.6 3.6 0 0 0 .9-.8 1.3 1.3 0 0 0 .4-1v-.8c0-.2-.1-.4-.4-.7l-.4-.2c-.3 0-.5-.2-.8-.3l-.7-.3-.4-.2-1.3-.7-1.6-1.2-1.5-.9a2.1 2.1 0 0 0-1.1-.4h-26l-7.8-.2a63.6 63.6 0 0 1-7.5-.8 47.4 47.4 0 0 1-7.2-1.8 48.7 48.7 0 0 1-7.1-3l-.9-.5-.9-.6a3 3 0 0 1-.8-.8 1.6 1.6 0 0 1-.3-.9l1.2.2 1.5.6 1.3.6.9.4 2.8 1 3.1.8a15.5 15.5 0 0 0 3.1.6 14.6 14.6 0 0 0 2.9.2h16l1.5-.2 2.1-.4 2.2-.3 2-.4 1.6-.3 4.2-.9c1.5-.2 3-.6 4.4-.9l4.4-1.3a24 24 0 0 0 4-1.7l2.3-1.1 2.3-.9 2.4-.8a18.3 18.3 0 0 1 2.5-.6h3.4l1.2-.2 2-.5 2.4-.5 2.5-.6c.7-.1 1.4-.5 2-.6s.9-.5 1.1-.5h4a35.6 35.6 0 0 1 4.7.5l4.8.3a5.4 5.4 0 0 0 3-.8 9 9 0 0 0 2.7-2.1 17.6 17.6 0 0 0 2.4-3 22.7 22.7 0 0 0 1.9-3.4 34 34 0 0 0 1.6-3.4c.4-1.1.8-2 1.1-2.9l.6-2.1c.2-.6.4-1.3.6-1.8a8 8 0 0 1 .8-1.6 4 4 0 0 1 1-1.2 5.4 5.4 0 0 1 1.6-1 7.1 7.1 0 0 1 2.3-.5h1.8c.4 1 1 .6 1.8.8l2.1.9 1.8 1.1a1.7 1.7 0 0 1 .7 1.4 1.1 1.1 0 0 1-.2.8 1.8 1.8 0 0 1-.7.3z"/></symbol><symbol id="velociraptor" viewBox="0 0 256 256"><path d="M128 51.3a76.7 76.7 0 1 0 76.7 76.7A76.8 76.8 0 0 0 128 51.3zm66.3 70h-4.4a52.5 52.5 0 0 1-5.6-.3l-5.4-.6-5.5-.6-5.6-.2a81.8 81.8 0 0 0-9.8.6 42.4 42.4 0 0 0-9.5 2.2l-18.4 6.6a1.7 1.7 0 0 0-.8 1c-.2.5-.3 1-.5 1.6l-.3 1.7a4 4 0 0 1-.4 1.2 1.5 1.5 0 0 0 .8.8 5.2 5.2 0 0 0 1.5.7l1.7.7 1.7.9a6.9 6.9 0 0 1 1.3 1.1 2.7 2.7 0 0 1 .5 1.5.8.8 0 0 1-.3.7l-.8.6-.9.4-1 .5-.7.6a1.6 1.6 0 0 0-.3.9 2.5 2.5 0 0 0 .4 1.6l1.2.9 1.4.8a3.5 3.5 0 0 1 1.3 1.1 13.7 13.7 0 0 1 1.3 2 20.2 20.2 0 0 1 .7 2.3 15.5 15.5 0 0 1 .5 2.3 19.3 19.3 0 0 1 .1 2.4l.8.7v4.4h2.1v1.1c-.1.3-.1.5-.2.8l-.4.5a.6.6 0 0 1-.5.2h-3.2l-.6-.5-.9-.5-.9-.4-.7-.6h-3.7a2.3 2.3 0 0 1 .4-1.7 2.4 2.4 0 0 1 1-1l1.2-.4 1.3-.2 1-.3a1 1 0 0 0 .4-.9v-.4c-.2-.2-.3-.6-.6-1a10.1 10.1 0 0 0-.7-1.5l-.9-1.5-1-1.1a1.9 1.9 0 0 0-.8-.4l-1.1-.6-1-.7q-.6-.3-.6-.6a18.9 18.9 0 0 1-.6-1.8l-.6-1.9a4.6 4.6 0 0 0-1.1-1.6 2.4 2.4 0 0 0-1.7-.6 11.8 11.8 0 0 0-3.7.5 14 14 0 0 0-3.4 1.3 16.1 16.1 0 0 0-3 2.1 13.1 13.1 0 0 0-2.4 2.8h-.4c0-.1 0-.1-.1-.2a.6.6 0 0 0-.1-.4v-.4c0-.1 0-.2-.1-.2h-.1a.9.9 0 0 0-.7.3l-.5.7a2.2 2.2 0 0 0-.5.8l-.5.6a1.9 1.9 0 0 1-.4-1c0-.3-.1-.6-.1-1a5.7 5.7 0 0 1 .3-1.8 15.4 15.4 0 0 1 .5-1.7l.6-1.5c.1-.6.2-1.7.2-1.7h-2.9c0-1 .1-1.1.4-1.4a2.6 2.6 0 0 1 .9-.9 3.1 3.1 0 0 1 1.3-.6l1.3-.2h1.8l1.8.3 1.7.3h3.2a1.6 1.6 0 0 0-1-.8 4.1 4.1 0 0 0-1.6-.3h-1.6c-.5-.1-1 .1-1.3-.1l-2.4-1.4h-.1a12 12 0 0 0-1.9 0 6.2 6.2 0 0 1-1.9.1 5.8 5.8 0 0 1-1.9-.4l-1.5-.8-1.6-.8a2.8 2.8 0 0 0-1.8-.4v3.6h1l.6-.2a.5.5 0 0 0 .5-.3l.6-.4h.3v1.7l1.2-.4.2.3v.3a3.3 3.3 0 0 1-.7 2.3 18 18 0 0 1-2 1.8 17.2 17.2 0 0 0-2.8-.8l-2.9-.4v-4.7l-1 .4a2.7 2.7 0 0 0-1.2.6 3.5 3.5 0 0 0-1.2.7c-.3.2-.6.5-.6.7v4.1h1.8l1.1-.4.8-.3a.8.8 0 0 1 .7-.2h.2c.1.1.1.2.2.5l.3.7c.1.3.1.6.2.8a1.5 1.5 0 0 1 .1.6 5.2 5.2 0 0 1-.2 1.1 4.1 4.1 0 0 1-.7 1.1 3.4 3.4 0 0 1-.9.8 2.5 2.5 0 0 1-1.1.4h-.6l-1.8-.3-2.2-.4a7.6 7.6 0 0 1-2-.8 1.5 1.5 0 0 1-.9-1.2v-7.1l.6-.5 1.1-1 1.4-1.3 1.5-1.5 1.1-1.6a3.2 3.2 0 0 0 .4-1.6 2 2 0 0 0-.7-1.6 7.6 7.6 0 0 0-1.7-1.3l-1.9-.8-1.6-.6-.8-5.4-.3-1.7a7.7 7.7 0 0 0-.7-1.6 3.5 3.5 0 0 0-1.1-1.3 2.1 2.1 0 0 0-1.6-.6 7.8 7.8 0 0 0-2.2.3l-1.9.9-1 .7-1.5.9-1.8 1-1.8 1.1-1.5 1c-.5.2-.8.6-1 .6h-1.8l-1.2-.2a2.6 2.6 0 0 1-.9-.5 1.1 1.1 0 0 1-.2-.8v-1.1c0-.4-.1-.6.1-.6h.9v-.3a4.3 4.3 0 0 0 .1-.5.9.9 0 0 0 .1-.5v-.3a1.2 1.2 0 0 0-.5-.5l-.5-.3-.4-.4a1.2 1.2 0 0 1-.2-.7 1.4 1.4 0 0 1 .2-.7 1.6 1.6 0 0 1 .4-.7 1.1 1.1 0 0 1 .3-.6l.5-.2v.5c0 .3.3.6.4.9a.7.7 0 0 0 .7.4 1.1 1.1 0 0 0 .7-.3l.5-.6a6.9 6.9 0 0 0 .4-1c.1-.3.2.1.2-.9h-7.4l-.5-.3-.6-.4c-.3-.1-.4-.3-.6-.4a.8.8 0 0 1-.2-.7 2.9 2.9 0 0 1 .6-1.9 6.4 6.4 0 0 1 1.6-1.1l1.9-.6a5.8 5.8 0 0 0 1.7-.5l1.4-.5 2-1 2-.9a9.2 9.2 0 0 1 1.3-.7h8.2a4.8 4.8 0 0 1 2.4.6 5.5 5.5 0 0 1 1.8 1.6 14.6 14.6 0 0 1 1.6 1.9 17.4 17.4 0 0 0 1.3 2 12.2 12.2 0 0 0 1.4 1.6 2.4 2.4 0 0 0 1.5.6.5.5 0 0 0 .5-.3.6.6 0 0 1 .5-.2l.9.2.9.4.9.4a1.8 1.8 0 0 0 1 .2h2.5l2.4-.3 2.5-.2 2.5-.2a31.5 31.5 0 0 1 4.4.3 18.1 18.1 0 0 1 4.4.9 18.8 18.8 0 0 1 3 1.2l3.1 1.3 3.1 1.1a12.4 12.4 0 0 0 3.3.4h1.6l7.7-1.6 7.8-1.4c2.5-.4 5.1-.7 7.7-.9a71.4 71.4 0 0 1 8-.4h5.3a22.7 22.7 0 0 1 3 .6l22 4.3h7c-.4 0-1.1.6-1.8.9a10.3 10.3 0 0 1-2.5-.1z"/></symbol></svg>